<svg viewBox="0 0 70 70" xmlns="http://www.w3.org/2000/svg">
  <!-- Background (optional, remove rect for transparent) -->
  <rect width="70" height="70" fill="#ffffff"/>
  
  <!-- Logo Mark - Stylized Star and Field Rows -->
  <g id="logomark" transform="translate(30, 35)">
    <!-- Field rows (simplified agricultural rows) -->
    <path d="M -25 15 Q -15 12, -5 15 T 15 15 T 35 15" 
          stroke="#4a7c59" 
          stroke-width="2.5" 
          fill="none" 
          stroke-linecap="round"/>
    <path d="M -25 20 Q -15 17, -5 20 T 15 20 T 35 20" 
          stroke="#4a7c59" 
          stroke-width="2.5" 
          fill="none" 
          stroke-linecap="round"/>
    <path d="M -25 25 Q -15 22, -5 25 T 15 25 T 35 25" 
          stroke="#4a7c59" 
          stroke-width="2.5" 
          fill="none" 
          stroke-linecap="round"/>
    
    <!-- Star (main focal point) -->
    <g id="star">
      <!-- Outer star points -->
      <path d="M 0,-28 L 6,-8 L 26,-8 L 10,4 L 16,24 L 0,12 L -16,24 L -10,4 L -26,-8 L -6,-8 Z" 
            fill="#2c5f3f"
            stroke="#1e4029"
            stroke-width="1.5"/>
      
      <!-- Inner highlight star for depth -->
      <path d="M 0,-20 L 4,-8 L 15,-8 L 6,0 L 10,12 L 0,5 L -10,12 L -6,0 L -15,-8 L -4,-8 Z" 
            fill="#5a9c6f"
            opacity="0.6"/>
      
      <!-- Center circle -->
      <circle cx="0" cy="2" r="4" fill="#ffc857" stroke="#e6a500" stroke-width="1"/>
    </g>
  </g>
</svg>